<?xml version="1.0" encoding="utf-8"?>
<?xml-stylesheet type="text/xsl" href="rss1.xsl"?>
<rss version="2.0" xmlns:atom="http://www.w3.org/2005/Atom" xmlns:content="http://purl.org/rss/1.0/modules/content/" xmlns:dc="http://purl.org/dc/elements/1.1/" xmlns:media="http://search.yahoo.com/mrss/">
<channel>
 <title>Getty</title>
 <link>http://www.gettyimg.com/</link>
 <atom:link href="http://www.gettyimg.com/" rel="self" type="application/rss+xml" />

 
                <item>
                <title><![CDATA[【Apple Music】WEB-RiP - Elena - Lacramioara (1080p)]]></title>
                <link><![CDATA[https://sharemania.us/threads/elena-lacramioara-1080p.250758/]]></link>
                <description><![CDATA[<article>
<blockquote class="messageText SelectQuoteContainer ugc baseHtml">
<img src="https://i.postimg.cc/nc2jsCFn/Elena-Lacramioara-mp4.jpg" class="bbCodeImage LbImage" alt="[​IMG]" data-url="https://i.postimg.cc/nc2jsCFn/Elena-Lacramioara-mp4.jpg" style=""><br>
<br>
<div class="bbCodeBlock bbCodeCode">
<div class="type">Code:</div>
<pre>General
Complete name                  : G:\Новая папка\Elena - Lacramioara.mp4
Format                         : MPEG-4
Format profile                 : Base Media
Codec ID                       : isom (isom/iso2/avc1/mp41)
File size                      : 178 MiB
Duration                       : 3 min 38 s
Overall bit rate               : 6 825 kb/s
Frame rate                     : 25.000 FPS
Movie name                     : Lacramioara
Performer                      : Elena
Genre                          : Pop
ContentType                    : Music Video
Recorded date                  : 2021-09-02 07:00:00 UTC
Writing application            : Lavf56.30.100
Copyright                      : ℗ 2016 Cat Music

Video
ID                             : 1
Format                         : AVC
Format/Info                    : Advanced Video Codec
Format profile                 : High@L4
Format settings                : CABAC / 4 Ref Frames
Format settings, CABAC         : Yes
Format settings, Reference fra : 4 frames
Format settings, Slice count   : 8 slices per frame
Codec ID                       : avc1
Codec ID/Info                  : Advanced Video Coding
Duration                       : 3 min 38 s
Bit rate                       : 6 559 kb/s
Width                          : 1 920 pixels
Height                         : 1 080 pixels
Display aspect ratio           : 16:9
Frame rate mode                : Constant
Frame rate                     : 25.000 FPS
Color space                    : YUV
Chroma subsampling             : 4:2:0
Bit depth                      : 8 bits
Scan type                      : Progressive
Bits/(Pixel*Frame)             : 0.127
Stream size                    : 171 MiB (96%)
Color range                    : Limited
Color primaries                : BT.709
Transfer characteristics       : BT.709
Matrix coefficients            : BT.709
Codec configuration box        : avcC

Audio
ID                             : 2
Format                         : AAC LC
Format/Info                    : Advanced Audio Codec Low Complexity
Codec ID                       : mp4a-40-2
Duration                       : 3 min 38 s
Duration_LastFrame             : -1 ms
Bit rate mode                  : Constant
Bit rate                       : 265 kb/s
Channel(s)                     : 2 channels
Channel layout                 : L R
Sampling rate                  : 48.0 kHz
Frame rate                     : 46.875 FPS (1024 SPF)
Compression mode               : Lossy
Stream size                    : 6.80 MiB (4%)
Default                        : Yes
Alternate group                : 1

</pre>
</div><br>
<div class="bbCodeBlock bbCodeVfcHH HiddenContent">
<div class="attribution type">Hidden Content:</div>
<blockquote>You must either reply or click 'Like' to see the hidden information contained here.</blockquote>
</div>
<div class="messageTextEndMarker">&nbsp;</div>
</blockquote>
</article>]]></description>
                <author><![CDATA[vitalya3]]></author>
                </item>

                
                <item>
                <title><![CDATA[【Apple Music】WEB-RiP - Elena - Body Song    (1080p)]]></title>
                <link><![CDATA[https://sharemania.us/threads/elena-body-song-1080p.250759/]]></link>
                <description><![CDATA[<article>
<blockquote class="messageText SelectQuoteContainer ugc baseHtml">
<img src="https://i.postimg.cc/vZkQD6Kg/Elena-Body-Song-mp4.jpg" class="bbCodeImage LbImage" alt="[​IMG]" data-url="https://i.postimg.cc/vZkQD6Kg/Elena-Body-Song-mp4.jpg" style=""><br>
<br>
<div class="bbCodeBlock bbCodeCode">
<div class="type">Code:</div>
<pre>General
Complete name                  : G:\Новая папка\Elena - Body Song.mp4
Format                         : MPEG-4
Format profile                 : Base Media
Codec ID                       : isom (isom/iso2/avc1/mp41)
File size                      : 153 MiB
Duration                       : 3 min 8 s
Overall bit rate               : 6 834 kb/s
Frame rate                     : 25.000 FPS
Movie name                     : Body Song
Performer                      : Elena
Genre                          : Pop
ContentType                    : Music Video
Recorded date                  : 2021-09-02 07:00:00 UTC
Writing application            : Lavf56.30.100
Copyright                      : ℗ 2017 Cat Music

Video
ID                             : 1
Format                         : AVC
Format/Info                    : Advanced Video Codec
Format profile                 : High@L4
Format settings                : CABAC / 4 Ref Frames
Format settings, CABAC         : Yes
Format settings, Reference fra : 4 frames
Format settings, Slice count   : 8 slices per frame
Codec ID                       : avc1
Codec ID/Info                  : Advanced Video Coding
Duration                       : 3 min 8 s
Bit rate                       : 6 569 kb/s
Width                          : 1 920 pixels
Height                         : 912 pixels
Display aspect ratio           : 2.105
Frame rate mode                : Constant
Frame rate                     : 25.000 FPS
Color space                    : YUV
Chroma subsampling             : 4:2:0
Bit depth                      : 8 bits
Scan type                      : Progressive
Bits/(Pixel*Frame)             : 0.150
Stream size                    : 147 MiB (96%)
Color range                    : Limited
Color primaries                : BT.709
Transfer characteristics       : BT.709
Matrix coefficients            : BT.709
Codec configuration box        : avcC

Audio
ID                             : 2
Format                         : AAC LC
Format/Info                    : Advanced Audio Codec Low Complexity
Codec ID                       : mp4a-40-2
Duration                       : 3 min 8 s
Duration_LastFrame             : -4 ms
Bit rate mode                  : Constant
Bit rate                       : 265 kb/s
Channel(s)                     : 2 channels
Channel layout                 : L R
Sampling rate                  : 48.0 kHz
Frame rate                     : 46.875 FPS (1024 SPF)
Compression mode               : Lossy
Stream size                    : 5.84 MiB (4%)
Default                        : Yes
Alternate group                : 1

</pre>
</div>
<div class="bbCodeBlock bbCodeVfcHH HiddenContent">
<div class="attribution type">Hidden Content:</div>
<blockquote>You must either reply or click 'Like' to see the hidden information contained here.</blockquote>
</div>
<div class="messageTextEndMarker">&nbsp;</div>
</blockquote>
</article>]]></description>
                <author><![CDATA[vitalya3]]></author>
                </item>

                
                <item>
                <title><![CDATA[【Actresses】Kelly LeBrock  - The Woman in Red (1984)1080p]]></title>
                <link><![CDATA[https://sharemania.us/threads/kelly-lebrock-the-woman-in-red-1984-1080p.250762/]]></link>
                <description><![CDATA[<article>
<blockquote class="messageText SelectQuoteContainer ugc baseHtml">
Kelly LeBrock - The Woman in Red (1984)1080p<br>
<br>
<a href="https://imgbox.com/mTj5mWiG" target="_blank" class="externalLink" rel="nofollow"><img src="https://thumbs2.imgbox.com/e0/1f/mTj5mWiG_t.jpg" class="bbCodeImage LbImage" alt="[​IMG]" data-url="https://thumbs2.imgbox.com/e0/1f/mTj5mWiG_t.jpg"></a> <a href="https://imgbox.com/CFHVHdRu" target="_blank" class="externalLink" rel="nofollow"><img src="https://thumbs2.imgbox.com/77/cd/CFHVHdRu_t.jpg" class="bbCodeImage LbImage" alt="[​IMG]" data-url="https://thumbs2.imgbox.com/77/cd/CFHVHdRu_t.jpg"></a> <a href="https://imgbox.com/hYfIQuey" target="_blank" class="externalLink" rel="nofollow"><img src="https://thumbs2.imgbox.com/d1/5f/hYfIQuey_t.jpg" class="bbCodeImage LbImage" alt="[​IMG]" data-url="https://thumbs2.imgbox.com/d1/5f/hYfIQuey_t.jpg"></a> <a href="https://imgbox.com/Am3HlbCN" target="_blank" class="externalLink" rel="nofollow"><img src="https://thumbs2.imgbox.com/29/f2/Am3HlbCN_t.jpg" class="bbCodeImage LbImage" alt="[​IMG]" data-url="https://thumbs2.imgbox.com/29/f2/Am3HlbCN_t.jpg"></a> <a href="https://imgbox.com/70TpuSW7" target="_blank" class="externalLink" rel="nofollow"><img src="https://thumbs2.imgbox.com/69/3d/70TpuSW7_t.jpg" class="bbCodeImage LbImage" alt="[​IMG]" data-url="https://thumbs2.imgbox.com/69/3d/70TpuSW7_t.jpg"></a> <a href="https://imgbox.com/TmmxnZFA" target="_blank" class="externalLink" rel="nofollow"><img src="https://thumbs2.imgbox.com/f4/36/TmmxnZFA_t.jpg" class="bbCodeImage LbImage" alt="[​IMG]" data-url="https://thumbs2.imgbox.com/f4/36/TmmxnZFA_t.jpg"></a><br>
Duration: 0:03:38 Resolution: 1920x1080 Format: mp4 Size: 122.93 MB<br>
<a href="https://filejoker.net/o06jm2cx6i7f" target="_blank" class="externalLink" rel="nofollow">https://filejoker.net/o06jm2cx6i7f</a>
<div class="messageTextEndMarker">&nbsp;</div>
</blockquote>
</article>]]></description>
                <author><![CDATA[piqeros]]></author>
                </item>

                
                <item>
                <title><![CDATA[【Apple Music】WEB-RiP - Elena - Un gram de suflet (1080p)]]></title>
                <link><![CDATA[https://sharemania.us/threads/elena-un-gram-de-suflet-1080p.250760/]]></link>
                <description><![CDATA[<article>
<blockquote class="messageText SelectQuoteContainer ugc baseHtml">
<img src="https://i.postimg.cc/Y9vHf2mG/Elena-Un-gram-de-suflet-mp4.jpg" class="bbCodeImage LbImage" alt="[​IMG]" data-url="https://i.postimg.cc/Y9vHf2mG/Elena-Un-gram-de-suflet-mp4.jpg" style=""><br>
<br>
<div class="bbCodeBlock bbCodeCode">
<div class="type">Code:</div>
<pre>General
Complete name                  : G:\Новая папка\Elena - Un gram de suflet.mp4
Format                         : MPEG-4
Format profile                 : Base Media
Codec ID                       : isom (isom/iso2/avc1/mp41)
File size                      : 156 MiB
Duration                       : 3 min 11 s
Overall bit rate               : 6 848 kb/s
Frame rate                     : 25.000 FPS
Movie name                     : Un gram de suflet
Performer                      : Elena
Genre                          : Pop
ContentType                    : Music Video
Recorded date                  : 2021-09-02 07:00:00 UTC
Writing application            : Lavf56.30.100
Copyright                      : ℗ 2018 Cat Music / Epiq Music

Video
ID                             : 1
Format                         : AVC
Format/Info                    : Advanced Video Codec
Format profile                 : High@L4
Format settings                : CABAC / 5 Ref Frames
Format settings, CABAC         : Yes
Format settings, Reference fra : 5 frames
Format settings, Slice count   : 8 slices per frame
Codec ID                       : avc1
Codec ID/Info                  : Advanced Video Coding
Duration                       : 3 min 11 s
Bit rate                       : 6 583 kb/s
Width                          : 1 920 pixels
Height                         : 768 pixels
Display aspect ratio           : 2.500
Frame rate mode                : Constant
Frame rate                     : 25.000 FPS
Color space                    : YUV
Chroma subsampling             : 4:2:0
Bit depth                      : 8 bits
Scan type                      : Progressive
Bits/(Pixel*Frame)             : 0.179
Stream size                    : 150 MiB (96%)
Color range                    : Limited
Color primaries                : BT.709
Transfer characteristics       : BT.709
Matrix coefficients            : BT.709
Codec configuration box        : avcC

Audio
ID                             : 2
Format                         : AAC LC
Format/Info                    : Advanced Audio Codec Low Complexity
Codec ID                       : mp4a-40-2
Duration                       : 3 min 11 s
Duration_LastFrame             : -9 ms
Bit rate mode                  : Constant
Bit rate                       : 265 kb/s
Channel(s)                     : 2 channels
Channel layout                 : L R
Sampling rate                  : 48.0 kHz
Frame rate                     : 46.875 FPS (1024 SPF)
Compression mode               : Lossy
Stream size                    : 5.96 MiB (4%)
Default                        : Yes
Alternate group                : 1

</pre>
</div>
<div class="bbCodeBlock bbCodeVfcHH HiddenContent">
<div class="attribution type">Hidden Content:</div>
<blockquote>You must either reply or click 'Like' to see the hidden information contained here.</blockquote>
</div>
<div class="messageTextEndMarker">&nbsp;</div>
</blockquote>
</article>]]></description>
                <author><![CDATA[vitalya3]]></author>
                </item>

                
                <item>
                <title><![CDATA[【Singles (lossless)】Wild Orchid - Supernatural (Single) (1997) [CD] [FLAC]]]></title>
                <link><![CDATA[https://sharemania.us/threads/wild-orchid-supernatural-single-1997-cd-flac.250761/]]></link>
                <description><![CDATA[<article>
<blockquote class="messageText SelectQuoteContainer ugc baseHtml">
Release Date: 1997<br>
Format: FLAC<br>
<br>
Tracklist:<br>
<br>
01 - Supernatural (Mainstream Radio Edit) (04:16)<br>
02 - Supernatural (feat. K-Borne) (Extra-Funky) (04:18)<br>
03 - Supernatural (Euro-Radio Edit) (03:37)<br>
<br>
<div class="bbCodeBlock bbCodeVfcHH HiddenContent">
<div class="attribution type">Hidden Content:</div>
<blockquote>You must reply before you can see the hidden data contained here.</blockquote>
</div>
<div class="messageTextEndMarker">&nbsp;</div>
</blockquote>
</article>]]></description>
                <author><![CDATA[phechft]]></author>
                </item>

                </channel></rss>